<svg width="600" height="95" viewBox="0 0 600 95" fill="none" xmlns="http://www.w3.org/2000/svg">
<g clip-path="url(#clip0_17571_11826)">
<path d="M574.22 2.375L537.94 38.8557L544.092 2.375H524.778L509.957 90.8156H529.299L535.937 50.4723L563.205 90.8156H585.665L555.451 47.1533L600 2.375H574.22Z" fill="#005AFF"/>
<path d="M99.914 2.375L84.3203 90.8156H139.771L143.033 72.704H108.297L120.801 2.375H99.914Z" fill="#060E17"/>
<path d="M88.8121 25.4079C88.6119 18.1404 86.2084 12.1032 79.9709 7.23909C74.506 3.00447 67.8679 2.68974 59.8851 2.375H47.3243L39.3701 18.684L55.6505 18.541C57.3958 18.541 58.9695 18.5123 60.6862 18.7698C63.1183 19.1704 68.8408 21.6883 68.5546 28.87C68.4116 32.0746 66.4659 35.9086 63.1755 37.7112C60.5146 39.1704 56.6519 39.6568 50.815 39.7141H46.2084L32.6748 57.1962L50.9008 57.0817C55.3644 57.0245 61.8021 56.7384 67.124 55.4508C79.1698 52.561 84.1483 43.9773 85.4645 41.1161C87.124 37.5681 88.9552 30.7584 88.7835 25.4079" fill="#060E17"/>
<path d="M220.2 72.6468C218.111 76.9387 215.393 80.5724 212.017 83.5767C208.64 86.581 204.635 88.8986 199.971 90.5581C195.307 92.2176 189.928 93.0474 183.862 93.0474C178.54 93.0474 173.733 92.3893 169.442 91.1017C165.15 89.8142 161.487 87.983 158.454 85.6082C155.422 83.2334 153.075 80.3435 151.473 76.91C149.842 73.5052 149.041 69.6711 149.041 65.4079C149.041 64.2348 149.098 63.0045 149.241 61.6597C149.356 60.3149 149.499 59.056 149.67 57.797L159.37 2.375H179.971L170.472 55.9944C170.3 56.8242 170.186 57.7112 170.157 58.6268C170.128 59.5424 170.1 60.3721 170.1 61.1161C170.1 62.9472 170.386 64.6926 170.901 66.3521C171.444 68.0116 172.303 69.4995 173.476 70.787C174.649 72.0746 176.194 73.1046 178.111 73.8485C180.028 74.5924 182.317 74.9644 184.978 74.9644C188.469 74.9644 191.359 74.3922 193.648 73.2763C195.937 72.1604 197.825 70.7012 199.284 68.8986C200.743 67.1246 201.859 65.1218 202.603 62.9186C203.347 60.7155 203.919 58.4837 204.349 56.2233L213.962 2.375H234.449L224.692 58.3407C223.776 63.5767 222.288 68.355 220.2 72.6468Z" fill="#060E17"/>
<path d="M277.682 75.0787C280.172 74.9928 282.489 74.7639 284.606 74.392C286.724 74.02 288.698 73.3619 290.529 72.4463L293.39 55.8226H276.137L279.256 38.7124H315.622L307.639 84.6066C303.691 87.3534 297.94 89.6423 292.303 91.0443C286.695 92.475 280.858 93.1617 274.878 93.1617C268.555 93.1617 262.775 92.2747 257.568 90.4721C252.36 88.6695 247.925 86.123 244.263 82.7754C240.601 79.4564 237.739 75.3934 235.708 70.6438C233.677 65.8941 232.646 60.5722 232.646 54.6495C232.646 47.0672 233.963 39.9428 236.595 33.2761C239.227 26.6094 242.89 20.8011 247.582 15.8512C252.275 10.9013 257.825 7.01001 264.206 4.1774C270.615 1.402 277.568 0 285.064 0C292.046 0 298.426 1.11588 304.12 3.31903C309.814 5.52217 314.306 8.78398 317.539 13.133L302.432 26.7525C300.772 24.3491 298.512 22.3176 295.622 20.6867C292.761 19.0558 289.099 18.2546 284.692 18.2546C280.286 18.2546 276.337 19.1702 272.646 21.0014C268.927 22.8326 265.722 25.3219 263.033 28.4406C260.315 31.5594 258.197 35.1931 256.652 39.3133C255.107 43.4335 254.335 47.7825 254.335 52.3605C254.335 55.5937 254.85 58.6266 255.822 61.4306C256.824 64.206 258.312 66.638 260.315 68.6695C262.317 70.701 264.778 72.3033 267.697 73.4192C270.615 74.535 273.934 75.1073 277.682 75.1073" fill="#060E17"/>
<path d="M333.648 2.375L318.025 90.8156H373.505L376.738 72.704H342.002L354.506 2.375H333.648Z" fill="#005AFF"/>
<path d="M399.084 2.375L383.462 90.8156H404.349L419.943 2.375H399.084Z" fill="#005AFF"/>
<path d="M489.499 2.375L479.485 60.7155H479.227L454.992 2.375H431.645L416.022 90.8156H436.509L446.495 32.1032H446.895L471.244 90.8156H494.363L509.957 2.375H489.499Z" fill="#005AFF"/>
<path d="M15.0215 2.375L4.09156 49.3278H13.0758L0 94.4208L41.0873 39.7141H24.6352L42.7754 2.375H15.0215Z" fill="#060E17"/>
</g>
<defs>
<clipPath id="clip0_17571_11826">
<rect width="600" height="94.4206" fill="white"/>
</clipPath>
</defs>
</svg>
